# xmcd
#
# Track frame offsets: 
#        150
#        6332
#        16086
#        27079
#        94575
#        107495
#        123076
#        141777
#        158550
#        175017
#        191672
#        253121
#        257772
#        277690
#        298133
#        316209
#
# Disc length: 4529 seconds
#
# Revision: 1
# Processed by: cddbd v1.5.2PL0 Copyright (c) Steve Scherf et al.
# Submitted via: ExactAudioCopy v0.99pb4
#
DISCID=c811af10
DTITLE=Jimi Hendrix - Electric Ladyland (Remast. 1997)
DYEAR=1968
DGENRE=Rock
TTITLE0=And The Gods Made Love
TTITLE1=Have You Ever Been (To Electric Ladyland)
TTITLE2=Crosstown Traffic
TTITLE3=Voodoo Chile
TTITLE4=Little Miss Strange
TTITLE5=Long Hot Summer Night
TTITLE6=Come On (Let The Good Times Roll)
TTITLE7=Gypsy Eyes
TTITLE8=Burning Of The Midnight Lamp
TTITLE9=Rainy Day, Dream Away
TTITLE10=1983...(A Merman I Should Turn To Be)
TTITLE11=Moon, Turn The Tides...Gently Gently Away
TTITLE12=Still Raining, Still Dreaming
TTITLE13=House Burning Down
TTITLE14=All Along The Watchtower
TTITLE15=Voodoo Child (Slight Return)
EXTD=
EXTT0=
EXTT1=
EXTT2=
EXTT3=
EXTT4=
EXTT5=
EXTT6=
EXTT7=
EXTT8=
EXTT9=
EXTT10=
EXTT11=
EXTT12=
EXTT13=
EXTT14=
EXTT15=
PLAYORDER=
